<?xml version="1.0" standalone="no"?><!DOCTYPE svg PUBLIC "-//W3C//DTD SVG 1.1//EN" "http://www.w3.org/Graphics/SVG/1.1/DTD/svg11.dtd"><svg class="icon" width="200px" height="200.00px" viewBox="0 0 1024 1024" version="1.1" xmlns="http://www.w3.org/2000/svg"><path fill="#333333" d="M890.335385 330.911222c-12.576374-12.416396-32.800753-12.352748-45.248112 0.192662L517.248327 661.951458 184.831931 332.512727c-12.576374-12.447359-32.800753-12.352748-45.280796 0.192662-12.447359 12.576374-12.352748 32.831716 0.192662 45.280796l353.311652 350.112082c0.543583 0.543583 1.247144 0.672598 1.792447 1.183497 0.127295 0.127295 0.159978 0.287273 0.287273 0.416288 6.239161 6.175514 14.399785 9.280473 22.527725 9.280473 8.224271 0 16.479505-3.168606 22.720387-9.471415l350.112082-353.311652C902.975407 363.615643 902.880796 343.360301 890.335385 330.911222z" /></svg>