<?xml version="1.0" standalone="no"?><!DOCTYPE svg PUBLIC "-//W3C//DTD SVG 1.1//EN" "http://www.w3.org/Graphics/SVG/1.1/DTD/svg11.dtd"><svg t="1512272973667" class="icon" style="" viewBox="0 0 1024 1024" version="1.1" xmlns="http://www.w3.org/2000/svg" p-id="1590" xmlns:xlink="http://www.w3.org/1999/xlink" width="200" height="200"><defs><style type="text/css"></style></defs><path d="M525.22823164 573.62441856a468.46358174 468.46358174 0 0 0-35.61585292 63.02926581 434.83718057 434.83718057 0 0 0-25.03902305 67.77804727c-6.47560987 23.31219463-10.57682901 46.91399239-12.3036583 70.79999766h53.96431201c2.0092377-27.33876474 6.04390254-52.95159844 12.08690507-76.84390019 6.04390254-23.88510615 13.88298692-46.54973935 23.52804785-67.99390049 9.63966445-21.43696553 20.93780391-41.72720887 33.88902364-60.8707292 12.95121885-19.13632559 27.33876474-37.62598974 43.17072979-55.47438809v-41.01219404h-206.78779776v44.03414443h156.7106499c-15.54236191 17.55789609-30.07830674 36.41181241-43.60333623 56.55365684z" p-id="1591"></path><path d="M798.54662128 173.10167334h-52.24737655V131.64248252c0-5.90899394-4.9592373-10.77019805-11.07688975-10.77019804h-30.07560849c-6.2561584 0-11.07599062 4.82163135-11.07599063 10.77019804v41.45919082h-365.60212119V131.64248252c0-5.90899394-4.9592373-10.77019805-11.07599063-10.77019804h-30.07650849c-6.2561584 0-11.07599062 4.82163135-11.07599063 10.77019804v41.45919082H223.99276924c-57.77772627 0-104.43899004 46.73051631-104.43899093 104.3751331v522.45217794c0 57.52319941 46.75839786 104.37513398 104.43899093 104.3751331h574.55475117c57.77772627 0 104.43899004-46.73051631 104.43899092-104.3751331V277.47680644c-0.00089913-57.52319941-46.76019697-104.37513398-104.43989004-104.3751331z m52.20960206 626.82821015c0 28.83355049-23.31129463 52.14664425-52.20960205 52.14664424H223.99186924c-28.79038037 0-52.20960205-23.42461815-52.20960205-52.14664424V382.01652881h678.97395615v417.91335468z m0-470.14184355H171.78226719v-52.31123349c0-28.83355049 23.31129463-52.14664425 52.20960205-52.14664424h52.24737656v41.45919081c0 5.90899394 4.9592373 10.77019805 11.07599063 10.77019718h30.07650761c6.2561584 0 11.07599062-4.82163135 11.07599063-10.77019718v-41.45919081h365.60122294v41.45919081c0 5.90899394 4.9592373 10.77019805 11.07598976 10.77019718h30.07560937c6.25705751 0 11.07688974-4.82163135 11.07688973-10.77019718v-41.45919081h52.24737658c28.79038037 0 52.20960205 23.42461815 52.20960117 52.14664424v52.31123349z" p-id="1592"></path></svg>