<?xml version="1.0" standalone="no"?><!DOCTYPE svg PUBLIC "-//W3C//DTD SVG 1.1//EN" "http://www.w3.org/Graphics/SVG/1.1/DTD/svg11.dtd"><svg class="icon" width="200px" height="200.00px" viewBox="0 0 1024 1024" version="1.1" xmlns="http://www.w3.org/2000/svg"><path fill="#333333" d="M136.021333 583.125333v-149.333333H85.333333V234.666667h50.688V158.165333c0-28.458667 23.04-51.498667 51.498667-51.498666h656.981333C872.96 106.666667 896 129.706667 896 158.165333v750.336c0 28.458667-23.04 51.498667-51.498667 51.498667H187.52c-28.458667 0-51.498667-23.04-51.498667-51.498667v-126.293333H85.333333v-199.082667h50.688z m375.765334-36.565333c71.125333 0 128.853333-55.509333 128.853333-123.946667C640.64 354.133333 582.912 298.666667 511.786667 298.666667c-71.168 0-128.853333 55.466667-128.853334 123.946666 0 68.437333 57.685333 123.946667 128.853334 123.946667zM691.541333 725.333333c18.645333 0 33.792-14.549333 33.792-32.512v-30.805333c0-45.824-40.96-82.986667-90.666666-82.986667h-245.333334C339.626667 579.029333 298.666667 616.192 298.666667 662.016v30.805333c0 17.92 15.146667 32.512 33.792 32.512h359.082666z" /></svg>