<?xml version="1.0" standalone="no"?><!DOCTYPE svg PUBLIC "-//W3C//DTD SVG 1.1//EN" "http://www.w3.org/Graphics/SVG/1.1/DTD/svg11.dtd"><svg class="icon" width="200px" height="200.00px" viewBox="0 0 1024 1024" version="1.1" xmlns="http://www.w3.org/2000/svg"><path  d="M183.466667 189.994667c0 13.482667-11.477333 24.405333-25.6 24.405333-14.122667 0-25.6-10.922667-25.6-24.405333v-18.346667c0-35.84 30.549333-64.981333 68.266666-64.981333h631.466667c37.717333 0 68.266667 29.098667 68.266667 64.981333v719.104c0 35.84-30.549333 64.981333-68.266667 64.981333H200.533333c-37.717333 0-68.266667-29.098667-68.266666-64.981333V832.853333c0-13.44 11.477333-24.362667 25.6-24.362666 14.122667 0 25.6 10.922667 25.6 24.362666v57.898667c0 8.96 7.68 16.213333 17.066666 16.213333h631.466667c9.386667 0 17.066667-7.253333 17.066667-16.213333V171.648a16.64 16.64 0 0 0-17.066667-16.213333H200.533333c-9.386667 0-17.066667 7.253333-17.066666 16.213333v18.346667z m328.277333 357.973333c-79.061333 0-143.146667-61.397333-143.146667-137.002667 0-75.648 64.085333-136.96 143.146667-136.96s143.189333 61.312 143.189333 136.96c0 75.605333-64.128 136.96-143.189333 136.96z m0-55.893333c48.810667 0 87.381333-36.906667 87.381333-81.109334 0-44.245333-38.570667-81.152-87.381333-81.152-48.810667 0-87.381333 36.906667-87.381333 81.152 0 44.202667 38.570667 81.109333 87.381333 81.109334zM85.333333 273.962667h100.522667v104.704H85.333333V273.92z m46.08 141.482666h52.48v179.2H131.413333v-179.2zM85.333333 630.272h100.736v104.704H85.333333v-104.704z m674.389334 107.818667a25.6 25.6 0 1 1-47.018667 20.309333 220.501333 220.501333 0 0 0-200.661333-131.84 218.496 218.496 0 0 0-198.784 127.573333 25.6 25.6 0 1 1-46.506667-21.290666 269.696 269.696 0 0 1 245.333333-157.525334 271.701333 271.701333 0 0 1 247.637334 162.773334z" /></svg>