<?xml version="1.0" standalone="no"?><!DOCTYPE svg PUBLIC "-//W3C//DTD SVG 1.1//EN" "http://www.w3.org/Graphics/SVG/1.1/DTD/svg11.dtd"><svg class="icon" width="200px" height="200.00px" viewBox="0 0 1024 1024" version="1.1" xmlns="http://www.w3.org/2000/svg"><path fill="#333333" d="M512 896c-2.432 0-4.352 0-8.448-0.085333h-2.816c-47.786667-0.554667-77.525333 15.872-151.168 104.874666-15.957333 19.285333-47.274667 6.570667-45.226667-18.389333 4.992-60.544 2.346667-102.528-5.333333-128.853333-3.925333-13.397333-7.168-17.92-7.765333-18.304A430.677333 430.677333 0 0 1 81.066667 465.066667C81.066667 227.072 274.005333 34.133333 512 34.133333c237.994667 0 430.933333 192.938667 430.933333 430.933334C942.933333 703.061333 749.994667 896 512 896z m-10.666667-51.285333h2.901334L512 844.8a379.733333 379.733333 0 1 0-194.474667-53.504c23.68 14.165333 39.168 51.84 40.533334 123.008 54.314667-55.338667 92.245333-70.186667 143.274666-69.589333zM695.466667 512a42.666667 42.666667 0 1 1 0-85.333333 42.666667 42.666667 0 0 1 0 85.333333zM512 512a42.666667 42.666667 0 1 1 0-85.333333 42.666667 42.666667 0 0 1 0 85.333333z m-183.466667 0a42.666667 42.666667 0 1 1 0-85.333333 42.666667 42.666667 0 0 1 0 85.333333z" /></svg>