<?xml version="1.0" standalone="no"?><!DOCTYPE svg PUBLIC "-//W3C//DTD SVG 1.1//EN" "http://www.w3.org/Graphics/SVG/1.1/DTD/svg11.dtd"><svg class="icon" width="200px" height="200.00px" viewBox="0 0 1024 1024" version="1.1" xmlns="http://www.w3.org/2000/svg"><path fill="#333333" d="M417.696 224c0-52.928 43.072-96 96-96s96 43.072 96 96-43.072 96-96 96S417.696 276.928 417.696 224z"  /><path fill="#333333" d="M417.696 512c0-52.928 43.072-96 96-96s96 43.072 96 96-43.072 96-96 96S417.696 564.928 417.696 512z"  /><path fill="#333333" d="M417.696 800c0-52.928 43.072-96 96-96s96 43.072 96 96-43.072 96-96 96S417.696 852.928 417.696 800z"  /></svg>