<?xml version="1.0" standalone="no"?><!DOCTYPE svg PUBLIC "-//W3C//DTD SVG 1.1//EN" "http://www.w3.org/Graphics/SVG/1.1/DTD/svg11.dtd"><svg class="icon" width="200px" height="200.00px" viewBox="0 0 1024 1024" version="1.1" xmlns="http://www.w3.org/2000/svg"><path fill="#333333" d="M486.4 905.216V793.6H213.333333A153.6 153.6 0 0 1 59.733333 640V298.666667A153.6 153.6 0 0 1 213.333333 145.066667h597.333334A153.6 153.6 0 0 1 964.266667 298.666667v341.333333a153.6 153.6 0 0 1-153.6 153.6h-273.066667v111.786667a746.666667 746.666667 0 0 1 154.794667 21.930666 21.333333 21.333333 0 1 1-10.368 41.386667 705.664 705.664 0 0 0-172.074667-21.162667c-55.168 0-109.482667 6.314667-162.176 18.773334a21.333333 21.333333 0 0 1-9.813333-41.557334 747.392 747.392 0 0 1 148.437333-19.541333z" /></svg>