<?xml version="1.0" standalone="no"?><!DOCTYPE svg PUBLIC "-//W3C//DTD SVG 1.1//EN" "http://www.w3.org/Graphics/SVG/1.1/DTD/svg11.dtd"><svg class="icon" width="200px" height="200.00px" viewBox="0 0 1024 1024" version="1.1" xmlns="http://www.w3.org/2000/svg"><path fill="#333333" d="M223.962372 607.897867c-52.980346 0-95.983874-43.003528-95.983874-95.983874s43.003528-95.983874 95.983874-95.983874 95.983874 43.003528 95.983874 95.983874S276.942718 607.897867 223.962372 607.897867zM511.913993 607.897867c-52.980346 0-95.983874-43.003528-95.983874-95.983874s43.003528-95.983874 95.983874-95.983874 95.983874 43.003528 95.983874 95.983874S564.894339 607.897867 511.913993 607.897867zM800.037628 607.897867c-52.980346 0-95.983874-43.003528-95.983874-95.983874s43.003528-95.983874 95.983874-95.983874 95.983874 43.003528 95.983874 95.983874S852.84596 607.897867 800.037628 607.897867z" /></svg>