<?xml version="1.0" standalone="no"?><!DOCTYPE svg PUBLIC "-//W3C//DTD SVG 1.1//EN" "http://www.w3.org/Graphics/SVG/1.1/DTD/svg11.dtd"><svg class="icon" width="200px" height="200.00px" viewBox="0 0 1024 1024" version="1.1" xmlns="http://www.w3.org/2000/svg"><path fill="#333333" d="M512 529.066667a209.066667 209.066667 0 1 0-0.042667-418.176A209.066667 209.066667 0 0 0 512 529.066667z m0 51.2a260.266667 260.266667 0 1 1 0.042667-520.576A260.266667 260.266667 0 0 1 512 580.266667z m379.733333 307.2v-64.682667c0-67.285333-59.136-123.050667-131.968-123.050667H264.234667c-72.832 0-131.968 55.765333-131.968 123.050667V887.466667c0 9.386667 7.68 17.066667 17.066666 17.066666h725.333334a17.066667 17.066667 0 0 0 17.066666-17.066666z m51.2 0a68.266667 68.266667 0 0 1-68.266666 68.266666h-725.333334a68.266667 68.266667 0 0 1-68.266666-68.266666v-64.682667c0-96.256 82.688-174.250667 183.168-174.250667h495.530666c100.48 0 183.168 77.994667 183.168 174.250667V887.466667z" /></svg>